<?xml version="1.0" encoding="UTF-8"?>
<svg width="64px" height="64px" viewBox="0 0 64 64" version="1.1" xmlns="http://www.w3.org/2000/svg" xmlns:xlink="http://www.w3.org/1999/xlink">
    <!-- Generator: Sketch 52.1 (67048) - http://www.bohemiancoding.com/sketch -->
    <title>social/codepen</title>
    <desc>Created with Sketch.</desc>
    <g id="social/codepen" stroke="none" stroke-width="1" fill="none" fill-rule="evenodd">
        <path d="M32,64 C14.326888,64 0,49.673112 0,32 C0,14.326888 14.326888,0 32,0 C49.673112,0 64,14.326888 64,32 C64,49.673112 49.673112,64 32,64 Z M55.0913086,39.2145996 L55.0913086,25.4348145 C55.0913086,24.1966309 54.4272827,23.0183594 53.3888062,22.3393555 L33.6727295,9.29848633 C32.4145752,8.4597168 30.7470215,8.4796875 29.4888672,9.35839844 L10.7962891,22.3792969 C9.79775391,23.0782715 9.15869141,24.2166016 9.15869141,25.4348145 L9.15869141,39.454248 C9.15869141,40.6924316 9.82271729,41.8707031 10.8611938,42.549707 L29.8982666,55.1112793 C31.1364502,55.9300781 32.7640625,55.9300781 34.0022461,55.1112793 L53.3937988,42.3100586 C54.4322754,41.6310547 55.0913086,40.4527832 55.0913086,39.2145996 Z M13.7519531,29.0495117 L18.1854492,32.0251465 L13.7519531,35.1405762 L13.7519531,29.0495117 Z M40.9919922,29.2891602 L34.2818359,24.4163086 L34.2418945,14.8104004 L48.1415039,24.4762207 L40.9919922,29.2891602 Z M29.3291016,24.1966309 L22.469165,29.0095703 L15.6092285,24.4163086 L29.3291016,14.8104004 L29.3291016,24.1966309 Z M34.3217773,39.594043 L40.9670288,35.1605469 L48.1115479,39.8536621 L34.3217773,49.080127 L34.3217773,39.594043 Z M29.5288086,39.6140137 L29.5288086,49.0667466 L15.6741333,39.79375 L22.5690186,34.9608398 L29.5288086,39.6140137 Z M50.0986328,35.3003418 L45.3855469,32.2048828 L50.0986328,29.0495117 L50.0986328,35.3003418 Z M31.3461426,28.8098633 L36.5784668,32.2448242 L31.9452637,35.3602539 L26.8527344,31.9452637 L31.3461426,28.8098633 Z" id="Combined-Shape" fill="#EDECDE" fill-rule="nonzero"></path>
    </g>
</svg>