<?xml version="1.0" encoding="UTF-8"?>
<svg width="64px" height="64px" viewBox="0 0 64 64" version="1.1" xmlns="http://www.w3.org/2000/svg" xmlns:xlink="http://www.w3.org/1999/xlink">
    <!-- Generator: Sketch 52.1 (67048) - http://www.bohemiancoding.com/sketch -->
    <title>social/email</title>
    <desc>Created with Sketch.</desc>
    <g id="social/email" stroke="none" stroke-width="1" fill="none" fill-rule="evenodd">
        <path d="M32,64 C14.326888,64 0,49.673112 0,32 C0,14.326888 14.326888,0 32,0 C49.673112,0 64,14.326888 64,32 C64,49.673112 49.673112,64 32,64 Z M17.0609934,19.3153717 L46.9632657,19.3153717 L32.0986926,32.7358135 C32.085288,32.7479303 31.9336153,32.7479303 31.9199495,32.7355961 L17.0609934,19.3153717 Z M50.7101767,22.9891614 L50.7101767,43.7115707 C50.7101767,44.7993831 49.8421256,45.6846283 48.7754418,45.6846283 L15.2245582,45.6846283 C14.1578744,45.6846283 13.2898233,44.7993831 13.2898233,43.7115707 L13.2898233,22.9661027 L28.4423933,36.6527353 C29.41737,37.5325697 30.696019,38 32.0100479,38 C33.324424,38 34.6019601,37.5322607 35.5772309,36.6519053 L50.7101767,22.9891614 Z M15.2245582,15 C13.502197,15 11.9362822,15.7086141 10.8034247,16.8639108 C9.6920494,17.9972999 9,19.5611699 9,21.2884293 L9,43.7115707 C9,45.4388301 9.6920494,47.0027001 10.8034247,48.1360892 C11.9362822,49.2913859 13.502197,50 15.2245582,50 L48.7754418,50 C50.497803,50 52.0637178,49.2913859 53.1965753,48.1360892 C54.3079506,47.0027001 55,45.4388301 55,43.7115707 L55,21.2884293 C55,19.5611699 54.3079506,17.9972999 53.1965753,16.8639108 C52.0637178,15.7086141 50.497803,15 48.7754418,15 L15.2245582,15 Z" id="Combined-Shape" fill="#EDECDE" fill-rule="nonzero"></path>
    </g>
</svg>