<?xml version="1.0" encoding="UTF-8"?>
<svg width="64px" height="64px" viewBox="0 0 64 64" version="1.1" xmlns="http://www.w3.org/2000/svg" xmlns:xlink="http://www.w3.org/1999/xlink">
    <!-- Generator: Sketch 52.1 (67048) - http://www.bohemiancoding.com/sketch -->
    <title>social/flickr</title>
    <desc>Created with Sketch.</desc>
    <g id="social/flickr" stroke="none" stroke-width="1" fill="none" fill-rule="evenodd">
        <path d="M32,64 C14.326888,64 0,49.673112 0,32 C0,14.326888 14.326888,0 32,0 C49.673112,0 64,14.326888 64,32 C64,49.673112 49.673112,64 32,64 Z M26.319237,38.3194371 C28.0679657,36.5704399 28.9426265,34.4538568 28.9426265,31.9717629 C28.9426265,29.4883351 28.0679657,27.3727895 26.319237,25.6239405 C24.569619,23.8747951 22.4541879,23 19.9713133,23 C17.4885869,23 15.3724147,23.8747951 13.623686,25.6239405 C11.8742161,27.3729377 11,29.4883351 11,31.9717629 C11,34.4548943 11.874809,36.5704399 13.623686,38.3194371 C15.3728593,40.0690272 17.4885869,40.9438223 19.9713133,40.9438223 C22.4543361,40.9438223 24.5697672,40.0690272 26.319237,38.3194371 Z M50.1857228,38.3194371 C51.9345997,36.5704399 52.8101498,34.4538568 52.8101498,31.9717629 C52.8101498,29.4883351 51.9347479,27.3727895 50.1857228,25.6239405 C48.4366976,23.8747951 46.3205254,23 43.8380955,23 C41.3552209,23 39.2396415,23.8747951 37.4895788,25.6239405 C35.7415912,27.3729377 34.8661893,29.4883351 34.8661893,31.9717629 C34.8661893,34.4548943 35.7415912,36.5704399 37.4895788,38.3194371 C39.2396415,40.0690272 41.3556655,40.9438223 43.8380955,40.9438223 C46.3215629,40.9438223 48.4377352,40.0690272 50.1857228,38.3194371 Z" id="Combined-Shape" fill="#EDECDE" fill-rule="nonzero"></path>
    </g>
</svg>