<?xml version="1.0" encoding="UTF-8"?>
<svg width="65px" height="63px" viewBox="0 0 65 63" version="1.1" xmlns="http://www.w3.org/2000/svg" xmlns:xlink="http://www.w3.org/1999/xlink">
    <!-- Generator: Sketch 52.1 (67048) - http://www.bohemiancoding.com/sketch -->
    <title>social/github</title>
    <desc>Created with Sketch.</desc>
    <g id="social/github" stroke="none" stroke-width="1" fill="none" fill-rule="evenodd">
        <path d="M60.6403433,16.0818297 C57.7341031,11.1345259 53.7919739,7.21773862 48.8129181,4.33058427 C43.8331213,1.44328266 38.3966676,0 32.4997036,0 C26.6034806,0 21.1652483,1.44372444 16.186489,4.33058427 C11.2069885,7.21759137 7.26500755,11.1345259 4.35876738,16.0818297 C1.45297187,21.0289862 0,26.4313194 0,32.288682 C0,39.3247034 2.06614585,45.651674 6.19947508,51.2712138 C10.3323597,56.8911954 15.6714347,60.7800035 22.2162555,62.93808 C22.9780912,63.0785648 23.5420572,62.9797542 23.9087462,62.6441516 C24.2755834,62.3081072 24.4587797,61.8872418 24.4587797,61.3833225 C24.4587797,61.2992378 24.4515171,60.5427697 24.4374364,59.1130349 C24.4229112,57.6833 24.4160932,56.4360187 24.4160932,55.37178 L23.4427517,55.5390659 C22.8221669,55.6520133 22.0392844,55.6998724 21.0941042,55.6863246 C20.1493686,55.6732186 19.1686163,55.5748498 18.1531812,55.3919544 C17.1373014,55.210679 16.1924177,54.7902553 15.3177888,54.1315671 C14.4436045,53.4728789 13.8230197,52.6106791 13.4561825,51.5462931 L13.0330228,50.5788034 C12.7509657,49.9346937 12.3069074,49.2191636 11.7002549,48.4348637 C11.0936025,47.6498275 10.4801321,47.1176345 9.85954723,46.8374012 L9.56326132,46.626674 C9.3658362,46.4866309 9.18263991,46.3177252 9.0132278,46.1217238 C8.84396392,45.9257225 8.71723833,45.7295739 8.63260639,45.5331308 C8.54782623,45.3365404 8.61808111,45.1752921 8.84411213,45.0487969 C9.07014315,44.9223016 9.47862938,44.8608947 10.0713494,44.8608947 L10.9173724,44.9865064 C11.4816348,45.0988648 12.1795889,45.4344674 13.0121242,45.9953759 C13.8442147,46.5558425 14.5282365,47.2844787 15.0643376,48.1809897 C15.7135283,49.3304912 16.4956698,50.2063861 17.4129852,50.809116 C18.3295595,51.4118459 19.2536929,51.7126955 20.184496,51.7126955 C21.1152992,51.7126955 21.9192285,51.6426003 22.5965805,51.5031463 C23.2731914,51.362956 23.9080051,51.1522288 24.5007251,50.8721427 C24.754621,48.993416 25.4459053,47.5501334 26.5739854,46.5412639 C24.9661267,46.373389 23.5205657,46.1205458 22.2365613,45.7843541 C20.9532979,45.4477207 19.6271999,44.9013909 18.2591564,44.1438921 C16.8903718,43.387424 15.7548809,42.4480607 14.8523872,41.3274219 C13.9497453,40.206194 13.2089564,38.7341959 12.6310581,36.9127529 C12.0528633,35.0905736 11.7636918,32.9886027 11.7636918,30.6062512 C11.7636918,27.2141467 12.8782841,24.3275814 15.1070241,21.9449354 C14.0629831,19.394709 14.1615475,16.5358283 15.4030136,13.3685879 C16.2211718,13.1160392 17.4344767,13.3055611 19.0423354,13.9359757 C20.6504905,14.5666848 21.8279268,15.106977 22.5758301,15.554938 C23.3237334,16.0027517 23.922975,16.3822375 24.3744442,16.6900082 C26.9986273,15.9615193 29.7067012,15.5972012 32.4994071,15.5972012 C35.292113,15.5972012 38.0007798,15.9615193 40.6251112,16.6900082 L42.2331181,15.6814332 C43.3327405,15.0084609 44.6312702,14.3917414 46.1255946,13.8311275 C47.6208083,13.2708081 48.7641547,13.1164809 49.5544481,13.3690296 C50.8234826,16.5364173 50.9365722,19.3951507 49.8922348,21.9453772 C52.1208265,24.3280232 53.2358635,27.2153248 53.2358635,30.606693 C53.2358635,32.9890444 52.9456545,35.097642 52.368349,36.9338109 C51.7903025,38.7702743 51.0431403,40.2407998 50.126566,41.3484799 C49.2089541,42.4560127 48.0662006,43.3880131 46.6981571,44.1443338 C45.3298172,44.9012436 44.0032745,45.4475735 42.7200111,45.7842069 C41.4361549,46.1208403 39.9905939,46.3738308 38.3827352,46.5420002 C39.8491948,47.8028293 40.5825729,49.7930309 40.5825729,52.5117212 L40.5825729,61.3821444 C40.5825729,61.8860637 40.7589512,62.3067819 41.1120042,62.6429735 C41.4646126,62.9785761 42.0214641,63.0773867 42.7832998,62.9367547 C49.32901,60.7789727 54.668085,56.8900173 58.8008214,51.2700358 C62.9331131,45.650496 65,39.3235253 65,32.2875039 C64.9985178,26.4308776 63.5448049,21.0289862 60.6403433,16.0818297 Z" id="Path" fill="#EDECDE"></path>
    </g>
</svg>