<?xml version="1.0" encoding="UTF-8"?>
<svg width="64px" height="64px" viewBox="0 0 64 64" version="1.1" xmlns="http://www.w3.org/2000/svg" xmlns:xlink="http://www.w3.org/1999/xlink">
    <!-- Generator: Sketch 52.1 (67048) - http://www.bohemiancoding.com/sketch -->
    <title>social/last.fm</title>
    <desc>Created with Sketch.</desc>
    <g id="social/last.fm" stroke="none" stroke-width="1" fill="none" fill-rule="evenodd">
        <path d="M32,64 C49.673112,64 64,49.673112 64,32 C64,14.326888 49.673112,0 32,0 C14.326888,0 0,14.326888 0,32 C0,49.673112 14.326888,64 32,64 Z M44.6133429,44.3628245 C42.3982183,44.3540186 40.6833648,43.8418707 39.3063982,42.9020131 C37.819006,41.886784 36.7212054,40.3644579 35.8345271,38.3879035 L35.3732175,37.4008295 L31.375074,28.6646772 C30.7508225,27.2029668 29.6571862,25.9815275 28.2832933,25.1263148 C26.9121383,24.2728065 25.2616293,23.7837475 23.5129964,23.7837475 C21.1396381,23.7837475 18.9893624,24.7055542 17.4330413,26.1983927 C15.884639,27.6836355 14.9246815,29.7347674 14.9246815,32.0013485 C14.9246815,34.2681585 15.8846359,36.319478 17.4330429,37.804852 C18.9893613,39.2978153 21.1396366,40.2196934 23.5129964,40.2196934 C25.1422565,40.2196934 26.667663,39.7858491 27.9680626,39.0309596 C29.618358,38.0729537 30.9064802,36.5981499 31.5812367,34.8382756 L33.7775986,39.6909708 C31.3996934,42.6184359 27.6846692,44.5 23.5125081,44.5 C19.9212706,44.5 16.6708525,43.1033148 14.3178762,40.8469517 C11.9578091,38.583789 10.5,35.4563735 10.5,32.0012555 C10.5,28.5475571 11.9583374,25.4189213 14.319267,23.154493 C16.672175,20.8977585 19.9220875,19.5 23.5127034,19.5 C26.2278819,19.5 28.679298,20.1999488 30.7301916,21.5127558 C32.7751245,22.8217472 34.424258,24.7413115 35.5350549,27.1990757 C35.5530229,27.2391502 35.594001,27.3308907 35.6551363,27.4677596 C36.1537514,28.5840532 37.9970429,32.7108006 39.6286385,36.2807024 C40.2173378,37.5678123 40.7439027,38.6284772 41.6086577,39.3261454 C42.2819139,39.8693159 43.1635516,40.1754026 44.430348,40.2164306 C45.8083911,40.2618301 46.9798221,39.9012937 47.81236,39.2651358 C48.6304024,38.6400543 49.1124244,37.7475938 49.1124244,36.7438573 C49.1124244,35.9358176 48.8642846,35.3922615 48.3741416,34.982608 C47.6701273,34.3942044 46.5528856,34.0512619 45.1245903,33.5956693 C42.4478752,32.749933 40.4649612,31.8882855 39.1821826,30.7092353 C37.9744976,29.5992064 37.3515066,28.2135055 37.3515066,26.2954768 C37.3515066,24.3074331 38.0723575,22.6595979 39.3574215,21.5095238 C40.6029684,20.3948156 42.3928563,19.7420729 44.6154283,19.7420729 C47.7160961,19.7420729 49.9007544,21.1446021 51.367205,23.9431657 L47.8356529,25.6732278 C46.8769898,24.2259583 45.8359104,23.6487149 44.4656375,23.6487149 C43.6269899,23.6487149 42.9034337,23.9183018 42.3910514,24.3831046 C41.8907177,24.8369778 41.5987631,25.4752162 41.5987631,26.2029442 C41.5987631,26.9818179 41.873221,27.5091245 42.3740559,27.9060203 C43.1217936,28.4985788 44.2912165,28.8333759 45.7040904,29.2594174 C46.0508238,29.3639722 46.4119474,29.4728776 46.784456,29.5900239 C49.1535977,30.330168 50.8488302,31.141624 51.9402702,32.3039557 C52.9792508,33.4104207 53.5,34.8337491 53.5,36.8453538 C53.4998432,39.020378 52.5347834,40.9033488 50.9323524,42.2444962 C49.3473989,43.5710157 47.1312778,44.3662787 44.6133429,44.3628245 Z" id="Combined-Shape" fill="#EDECDE" fill-rule="nonzero"></path>
    </g>
</svg>