<?xml version="1.0" encoding="UTF-8"?>
<svg width="64px" height="64px" viewBox="0 0 64 64" version="1.1" xmlns="http://www.w3.org/2000/svg" xmlns:xlink="http://www.w3.org/1999/xlink">
    <!-- Generator: Sketch 52.1 (67048) - http://www.bohemiancoding.com/sketch -->
    <title>social/linkedin</title>
    <desc>Created with Sketch.</desc>
    <g id="social/linkedin" stroke="none" stroke-width="1" fill="none" fill-rule="evenodd">
        <path d="M32,64 C14.326888,64 0,49.673112 0,32 C0,14.326888 14.326888,0 32,0 C49.673112,0 64,14.326888 64,32 C64,49.673112 49.673112,64 32,64 Z M24.1767056,49 L24.1767056,26.0601798 L16.4581017,26.0601798 L16.4581017,49 L24.1767056,49 Z M20.3181757,22.926218 C23.0074001,22.926218 24.6819596,21.1660963 24.6819596,18.9614552 C24.6306503,16.7123976 23.0068063,15 20.366872,15 C17.7271753,15 16,16.7128702 16,18.9614552 C16,21.1656238 17.6778851,22.926218 20.2662725,22.926218 L20.3181757,22.926218 Z M52,49 L52,35.8462204 C52,28.7968738 48.191948,25.5200941 43.1132783,25.5200941 C39.0157801,25.5200941 37.1853924,27.749306 36.161107,29.3120342 L36.161107,26.0598254 L28.4452348,26.0598254 C28.5461906,28.2113084 28.4452348,48.9995275 28.4452348,48.9995275 L36.1599192,48.9995275 L36.1599192,36.1863137 C36.1599192,35.5025832 36.210991,34.8179077 36.4171783,34.3283812 C36.9736228,32.9577307 38.240796,31.5380566 40.3754763,31.5380566 C43.1658941,31.5380566 44.2838903,33.6424062 44.2838903,36.7263994 L44.2838903,49 L52,49 Z M36.1112229,29.3849198 C36.1244066,29.3634203 36.1428161,29.3375501 36.161107,29.3123886 L36.161107,29.3849198 L36.1112229,29.3849198 Z" id="Combined-Shape" fill="#EDECDE" fill-rule="nonzero"></path>
    </g>
</svg>