<?xml version="1.0" encoding="UTF-8"?>
<svg width="64px" height="64px" viewBox="0 0 64 64" version="1.1" xmlns="http://www.w3.org/2000/svg" xmlns:xlink="http://www.w3.org/1999/xlink">
    <!-- Generator: Sketch 52.1 (67048) - http://www.bohemiancoding.com/sketch -->
    <title>social/soundcloud</title>
    <desc>Created with Sketch.</desc>
    <g id="social/soundcloud" stroke="none" stroke-width="1" fill="none" fill-rule="evenodd">
        <path d="M32,64 C14.326888,64 0,49.673112 0,32 C0,14.326888 14.326888,0 32,0 C49.673112,0 64,14.326888 64,32 C64,49.673112 49.673112,64 32,64 Z M11.4841184,33.9355167 C11.3949266,33.9355167 11.3241249,34.0034336 11.3126311,34.1003283 L11,36.4389314 L11.3126311,38.7372373 C11.3241249,38.834132 11.3949266,38.901596 11.4841184,38.901596 C11.5705517,38.901596 11.6408937,38.8345848 11.6546862,38.7381429 L11.6546862,38.7376901 C11.6546862,38.7376901 11.6546862,38.7376901 11.6546862,38.7381429 L12.025246,36.4389314 L11.6546862,34.0998755 C11.6413534,34.0034336 11.570092,33.9355167 11.4841184,33.9355167 Z M13.2422084,32.6577746 C13.2274964,32.5572577 13.1543959,32.4879825 13.0642846,32.4879825 C12.9737135,32.4879825 12.898774,32.5595216 12.8863607,32.6577746 C12.8863607,32.6586801 12.4661478,36.4389314 12.4661478,36.4389314 L12.8863607,40.1363242 C12.8983142,40.2354828 12.9732538,40.3070218 13.0642846,40.3070218 C13.1539361,40.3070218 13.2270366,40.2372939 13.2417487,40.1372297 L13.7198903,36.4389314 L13.2422084,32.6577746 Z M19.8644701,29.1700185 C19.6920632,29.1700185 19.5495402,29.3090216 19.5412647,29.4856054 L19.2065656,36.4421009 L19.5412647,40.9377429 C19.55,41.1134211 19.6920632,41.2519715 19.8644701,41.2519715 C20.0359574,41.2519715 20.1780206,41.1129683 20.1881352,40.9368373 L20.1881352,40.9381957 L20.5665107,36.4421009 L20.1881352,29.4856054 C20.1780206,29.3090216 20.0359574,29.1700185 19.8644701,29.1700185 Z M16.4370221,31.587858 C16.3046136,31.587858 16.196572,31.6919971 16.1859977,31.8310003 L15.8090015,36.4402898 L16.1859977,40.8997095 C16.1961123,41.037807 16.3046136,41.1419462 16.4370221,41.1419462 C16.5680513,41.1419462 16.6760929,41.037807 16.6875867,40.8997095 L17.1160752,36.4402898 L16.6875867,31.8300947 C16.6760929,31.6919971 16.5680513,31.587858 16.4370221,31.587858 Z M23.347548,41.2515187 C23.5613325,41.2515187 23.7351186,41.0817266 23.7438538,40.8643927 L24.0721165,36.4443648 L23.7443136,27.1827718 C23.7355783,26.9654379 23.5617922,26.7956458 23.3480077,26.7956458 C23.1323843,26.7956458 22.9581384,26.9658907 22.9512421,27.1832245 C22.9512421,27.1836773 22.6602194,36.443912 22.6602194,36.443912 L22.9512421,40.865751 C22.9581384,41.0812738 23.1323843,41.2515187 23.347548,41.2515187 Z M30.4782949,41.2723465 C30.7725359,41.2723465 31.0152847,41.033732 31.0208017,40.7403313 L31.0208017,40.7435007 L31.0208017,40.7403313 L31.249758,36.4470815 L31.0208017,25.750632 C31.0157445,25.457684 30.7725359,25.2186168 30.4782949,25.2186168 C30.1835941,25.2186168 29.9403855,25.4572313 29.935788,25.7510848 L29.7311986,36.4434592 C29.7311986,36.4502509 29.935788,40.743048 29.935788,40.743048 C29.9403855,41.033732 30.1840539,41.2723465 30.4782949,41.2723465 Z M26.8857961,41.2555937 C27.1418777,41.2555937 27.3483062,41.0532015 27.3552025,40.7951175 L27.3552025,40.798287 L27.6338119,36.4452703 L27.3547427,27.116666 C27.3478464,26.858582 27.141418,26.6566426 26.8853363,26.6566426 C26.6274157,26.6566426 26.4209873,26.858582 26.4154702,27.116666 L26.1676641,36.4457231 L26.41593,40.7978342 C26.421447,41.0532015 26.6278755,41.2555937 26.8857961,41.2555937 Z M18.1440797,41.2148436 C18.2962575,41.2148436 18.4194709,41.0948572 18.4309647,40.9368373 L18.8346266,36.4402898 L18.4309647,32.1628872 C18.4199306,32.0048674 18.2967172,31.8857865 18.1440797,31.8857865 C17.9896032,31.8857865 17.8663897,32.0057729 17.856735,32.1646983 L17.501347,36.4402898 L17.856735,40.9363846 C17.8668495,41.0948572 17.9896032,41.2148436 18.1440797,41.2148436 Z M14.7437571,40.9685319 C14.8550169,40.9685319 14.9451282,40.8820511 14.9580013,40.7625175 L15.4113163,36.4393842 L14.958461,31.9532506 C14.9451282,31.8332642 14.8550169,31.7467834 14.7437571,31.7467834 C14.6311179,31.7467834 14.5410066,31.8337169 14.5295128,31.9532506 C14.5295128,31.9537034 14.1304485,36.4393842 14.1304485,36.4393842 L14.5295128,40.7616119 C14.5405469,40.8815983 14.6306582,40.9685319 14.7437571,40.9685319 Z M28.6751492,26.9613629 C28.3969995,26.9613629 28.17402,27.1791495 28.168503,27.4580614 L27.9423052,36.4461759 L28.168503,40.7711203 C28.17402,41.0464098 28.3965398,41.2641965 28.6751492,41.2641965 C28.9528392,41.2641965 29.1744394,41.0468626 29.1808759,40.7679508 L29.1808759,40.771573 L29.4346588,36.4466287 L29.1808759,27.4571558 C29.1744394,27.1791495 28.9528392,26.9613629 28.6751492,26.9613629 Z M21.5995725,41.2605743 C21.7917487,41.2605743 21.950363,41.1061767 21.959558,40.9092178 L22.3126472,36.4434592 L21.959558,27.8958986 C21.9499032,27.698487 21.7917487,27.5445421 21.5995725,27.5445421 C21.4055573,27.5445421 21.2474028,27.6989397 21.2391273,27.8958986 C21.2391273,27.8963514 20.9264962,36.4434592 20.9264962,36.4434592 L21.239587,40.9110289 C21.2474028,41.1061767 21.4055573,41.2605743 21.5995725,41.2605743 Z M25.542402,40.8390371 L25.542402,40.8367732 L25.845838,36.4448176 L25.542402,26.8712599 C25.535046,26.6335509 25.3447088,26.447006 25.1097758,26.447006 C24.8734635,26.447006 24.6831263,26.6330981 24.6766898,26.8712599 L24.4072754,36.4443648 L24.6771495,40.8385843 C24.6835861,41.0740294 24.8739232,41.2601215 25.1097758,41.2601215 C25.3451686,41.2601215 25.5345862,41.0740294 25.542402,40.837226 L25.542402,40.8390371 Z M48.492281,30.926348 C47.7718503,30.926348 47.0845217,31.0698789 46.4583401,31.3284157 C46.0399661,26.6611704 42.0658735,23 37.2182529,23 C36.0320939,23 34.8758187,23.2300117 33.8547104,23.6189488 C33.4579448,23.770177 33.352202,23.9259329 33.348524,24.2279365 L33.348524,40.6638116 C33.3526617,40.9807569 33.6023068,41.244727 33.9163171,41.2759688 C33.9296499,41.2773271 48.3980319,41.2845716 48.4918213,41.2845716 C51.3956122,41.2845716 53.75,38.9658907 53.75,36.1056861 C53.75,33.2454816 51.3960719,30.926348 48.492281,30.926348 Z M32.2736248,24.2134475 C31.9577754,24.2134475 31.6984756,24.4688149 31.693878,24.7825907 L31.4566462,36.4484398 L31.6943378,40.6823756 C31.6984756,40.9916236 31.9577754,41.2465381 32.2736248,41.2465381 C32.5885546,41.2465381 32.8478545,40.9916236 32.852452,40.6778478 L32.852452,40.6828284 L33.1103726,36.4484398 L32.852452,24.7816851 C32.8478545,24.4688149 32.5885546,24.2134475 32.2736248,24.2134475 Z" id="Combined-Shape" fill="#EDECDE" fill-rule="nonzero"></path>
    </g>
</svg>