<?xml version="1.0" encoding="UTF-8"?>
<svg width="64px" height="64px" viewBox="0 0 64 64" version="1.1" xmlns="http://www.w3.org/2000/svg" xmlns:xlink="http://www.w3.org/1999/xlink">
    <!-- Generator: Sketch 52.1 (67048) - http://www.bohemiancoding.com/sketch -->
    <title>social/twitter</title>
    <desc>Created with Sketch.</desc>
    <g id="social/twitter" stroke="none" stroke-width="1" fill="none" fill-rule="evenodd">
        <path d="M32,64 C14.326888,64 0,49.673112 0,32 C0,14.326888 14.326888,0 32,0 C49.673112,0 64,14.326888 64,32 C64,49.673112 49.673112,64 32,64 Z M24.56,48.8705882 C39.648,48.8705882 47.904,36.2205882 47.904,25.2691176 C47.904,24.9132353 47.904,24.5573529 47.888,24.2014706 C49.488,23.0367647 50.88,21.5647059 51.984,19.8985294 C50.512,20.5617647 48.928,20.9985294 47.264,21.2088235 C48.96,20.1897059 50.256,18.5558824 50.88,16.6147059 C49.296,17.5691176 47.536,18.2485294 45.664,18.6205882 C44.16,17.0029412 42.032,16 39.68,16 C35.152,16 31.472,19.7205882 31.472,24.2985294 C31.472,24.9455882 31.552,25.5764706 31.68,26.1911765 C24.864,25.8514706 18.816,22.5352941 14.768,17.5205882 C14.064,18.75 13.664,20.1735294 13.664,21.6941176 C13.664,24.5735294 15.12,27.1132353 17.312,28.6014706 C15.968,28.5529412 14.704,28.1808824 13.6,27.5661765 C13.6,27.5985294 13.6,27.6308824 13.6,27.6794118 C13.6,31.6911765 16.432,35.0558824 20.176,35.8161765 C19.488,36.0102941 18.768,36.1073529 18.016,36.1073529 C17.488,36.1073529 16.976,36.0588235 16.48,35.9617647 C17.52,39.2617647 20.56,41.6558824 24.144,41.7205882 C21.328,43.9529412 17.792,45.2794118 13.952,45.2794118 C13.296,45.2794118 12.64,45.2470588 12,45.1661765 C15.616,47.4955882 19.936,48.8705882 24.56,48.8705882 Z" id="Combined-Shape" fill="#EDECDE" fill-rule="nonzero"></path>
    </g>
</svg>