<?xml version="1.0" encoding="UTF-8"?>
<svg width="104px" height="104px" viewBox="0 0 104 104" version="1.1" xmlns="http://www.w3.org/2000/svg" xmlns:xlink="http://www.w3.org/1999/xlink">
    <!-- Generator: Sketch 52.1 (67048) - http://www.bohemiancoding.com/sketch -->
    <title>body/brain</title>
    <desc>Created with Sketch.</desc>
    <g id="body/brain" stroke="none" stroke-width="1" fill="none" fill-rule="evenodd">
        <g id="human-brain" transform="translate(19.000000, 12.000000)" fill="#EDECDE">
            <path d="M64.7915,42.269 L59.51025,31.60925 C58.54075,13.913 48.41575,0 32.303,0 C5.403,0 0.233,14.3705 0.233,29.06625 C0.233,36.32425 3.32725,43.03175 8.337,47.91825 L1.66325,76.839 C1.4865,77.60525 1.66875,78.4105 2.15825,79.026 C2.64775,79.6415 3.39125,80 4.17775,80 L14.86825,80 L22.63225,48.306 C23.213,45.697 22.47675,42.9675 20.65875,41.00825 C17.656,37.77225 16.2095,33.643 16.6635,29.12825 C17.7535,18.2905 25.607,12.8715 32.92025,12.8715 C38.235,12.8715 48.76025,15.309 48.76025,23.60525 C48.76025,26.151 47.4885,26.79425 43.38475,27.28 C41.613,27.48975 40.10325,28.66825 39.472,30.337 C39.1135,31.28475 38.6545,31.52675 37.8165,31.52675 C36.94275,31.52675 35.657,31.264 33.6425,31.264 C32.53425,31.264 29.42025,35.2745 29.086,36.8345 C28.26375,40.67225 30.294,44.23125 29.847,46.2915 C28.15525,54.0915 24.15775,69.80025 22.01075,80 L26.475,80 C27.83825,80 29.021,79.059 29.3275,77.731 L30.95825,70.664 L44.144,70.664 C50.14975,70.664 55.30825,65.97425 56.39725,59.50675 C57.0265,55.7625 57.70725,51.515 58.27775,47.49025 L62.15325,47.49025 C63.28575,47.49025 64.329,46.81675 64.87725,45.7315 C65.426,44.646 65.393,43.32025 64.7915,42.269 Z M58.278,43.74025 L55.022,43.74025 L54.565,46.964 C54.07275,50.43675 53.445,54.4475 52.69925,58.88425 C51.916,63.537 48.318,66.914 44.144,66.914 L30.95825,66.914 L28.84075,66.914 C29.335,64.834 29.8325,62.7595 30.311,60.76425 C31.57325,55.4995 32.76575,50.52675 33.512,47.0865 C33.87625,45.40675 33.50525,43.7465 33.1465,42.14125 C32.81325,40.65075 32.469,39.11075 32.731,37.729 C32.99225,37.10825 33.9725,35.76975 34.6625,35.04075 C35.232,35.0705 35.7285,35.1205 36.186,35.1665 C36.7495,35.22325 37.28175,35.27675 37.81675,35.27675 C40.265,35.27675 42.09875,33.9935 42.98,31.66375 C43.11675,31.3025 43.44075,31.04975 43.82575,31.00425 C46.861,30.645 52.5105,29.9765 52.5105,23.6055 C52.5105,18.55275 49.669,14.3505 44.5095,11.773 C39.58525,9.313 34.39425,9.122 32.9205,9.122 C23.969,9.122 14.229,15.86525 12.9325,28.7535 C12.38,34.2465 14.14775,39.50475 17.91,43.5595 C18.88075,44.60575 19.27925,46.061 18.97925,47.4585 L11.926,76.25 L5.64775,76.25 L11.99125,48.7615 L12.4655,46.7065 L10.95575,45.23375 C6.4595,40.84825 3.9835,35.1065 3.9835,29.06625 C3.9835,21.18025 5.6335,15.42225 9.028,11.463 C11.08375,9.065 13.77125,7.27575 17.244,5.9925 C21.27075,4.5045 26.3375,3.75 32.303,3.75 C38.83775,3.75 44.50275,6.446 48.68575,11.5465 C52.811,16.57675 55.3255,23.77475 55.766,31.8145 L55.808,32.58375 L56.15,33.274 L61.33525,43.74 L58.278,43.74 L58.278,43.74025 Z" id="Shape" fill-rule="nonzero"></path>
            <path d="M14.37725,10.5175 C14.00175,10.5175 13.6225,10.63 13.29275,10.86425 C13.015,11.06175 6.4875,15.80175 6.78775,24.577 C6.82275,25.59025 7.65475,26.38775 8.6605,26.38775 C8.68225,26.38775 8.704,26.3875 8.726,26.38675 C9.761,26.351 10.57125,25.4835 10.53575,24.4485 C10.3065,17.74975 15.239,14.085 15.46975,13.91775 C16.3095,13.317 16.5055,12.1495 15.90725,11.307 C15.54175,10.79225 14.964,10.5175 14.37725,10.5175 Z" id="Path"></path>
            <circle id="Oval" cx="19.15875" cy="9.83075" r="1.875"></circle>
        </g>
    </g>
</svg>