<?xml version="1.0" encoding="UTF-8"?>
<svg width="104px" height="104px" viewBox="0 0 104 104" version="1.1" xmlns="http://www.w3.org/2000/svg" xmlns:xlink="http://www.w3.org/1999/xlink">
    <!-- Generator: Sketch 52.1 (67048) - http://www.bohemiancoding.com/sketch -->
    <title>body/ear</title>
    <desc>Created with Sketch.</desc>
    <g id="body/ear" stroke="none" stroke-width="1" fill="none" fill-rule="evenodd">
        <g id="ear" transform="translate(26.000000, 17.000000)" fill="#EDECDE">
            <path d="M45.2805,7.473 C40.5115,2.65375 33.7465,0 26.232,0 C11.83725,0 0.12675,11.71125 0.12675,26.106 L0.12675,52.653 C0.12675,63.9485 5.58625,70.96525 14.3745,70.96525 C26.78575,70.96525 30.985,62.07925 33.24175,57.30425 L33.29625,57.18875 C35.5725,52.37375 38.463,50.3545 41.523,48.2165 C46.7645,44.5545 52.18425,40.7675 52.337,26.1435 C52.41475,18.67275 49.97475,12.2165 45.2805,7.473 Z M39.37525,45.14275 C36.20325,47.35875 32.60825,49.8705 29.90525,55.58725 L29.8505,55.703 C27.684,60.2875 24.41,67.21525 14.3745,67.21525 C7.703,67.21525 3.87675,61.90775 3.87675,52.653 L3.87675,26.106 C3.87675,13.77875 13.90525,3.75 26.232,3.75 C32.7375,3.75 38.55575,6.009 42.615,10.1105 C46.58925,14.1265 48.65425,19.65725 48.587,26.10475 C48.4545,38.799 44.247,41.73875 39.37525,45.14275 Z" id="Shape" fill-rule="nonzero"></path>
            <path d="M37.79975,20.764 C38.26625,21.6885 39.394,22.05925 40.3185,21.59275 C41.24275,21.12625 41.614,19.9985 41.14725,19.074 C40.3815,17.5575 39.39025,16.17875 38.20075,14.97675 C34.9205,11.66225 30.27825,9.837 25.12825,9.837 C20.357,9.837 15.6625,12.15825 12.24825,16.206 C8.88025,20.19875 7.396,25.10325 8.1755,29.662 C8.585,32.05675 10.6535,33.00125 12.47875,33.8345 C14.25025,34.6435 15.92325,35.4075 16.76125,37.33575 C17.71775,39.537 17.62375,41.464 14.45625,45.88825 C13.8535,46.73025 14.0475,47.90175 14.88925,48.5045 C15.22,48.741 15.6015,48.855 15.979,48.855 C16.5635,48.855 17.13925,48.5825 17.50525,48.07125 C20.58225,43.773 22.1065,40.22775 20.20025,35.841 C18.789,32.59375 16.04175,31.33925 14.036,30.42325 C13.00875,29.95425 11.94675,29.46925 11.8715,29.03 C11.2875,25.6135 12.49975,21.72325 15.1145,18.62375 C17.8145,15.42275 21.46425,13.587 25.128,13.587 C29.26875,13.587 32.96475,15.0175 35.535,17.61425 C36.44925,18.53775 37.211,19.5975 37.79975,20.764 Z" id="Path"></path>
            <path d="M41.185,24.98 C40.14925,24.98 39.31,25.81925 39.31,26.855 C39.31,31.68325 38.354,34.14625 35.78225,35.94325 C34.93325,36.53625 34.726,37.70525 35.31925,38.554 C35.68375,39.07575 36.266,39.35525 36.85775,39.35525 C37.22825,39.35525 37.603,39.2455 37.93,39.01675 C42.43825,35.8665 43.06,31.31 43.06,26.855 C43.06,25.81925 42.22075,24.98 41.185,24.98 Z" id="Path"></path>
        </g>
    </g>
</svg>