<?xml version="1.0" encoding="UTF-8"?>
<svg width="104px" height="104px" viewBox="0 0 104 104" version="1.1" xmlns="http://www.w3.org/2000/svg" xmlns:xlink="http://www.w3.org/1999/xlink">
    <!-- Generator: Sketch 52.1 (67048) - http://www.bohemiancoding.com/sketch -->
    <title>body/eye</title>
    <desc>Created with Sketch.</desc>
    <g id="body/eye" stroke="none" stroke-width="1" fill="none" fill-rule="evenodd">
        <g id="human-eye" transform="translate(12.000000, 31.000000)" fill="#EDECDE">
            <circle id="Oval" cx="40.0995" cy="21.0995" r="4.344"></circle>
            <path d="M78.9875,18.23925 C76.575,15.90225 71.5215,11.395 64.78175,7.4635 C56.4015,2.575 48.097,0.09625 40.0995,0.09625 C32.1015,0.09625 23.79675,2.57525 15.416,7.46425 C8.67675,11.39575 3.62325,15.903 1.21075,18.23975 C0.44075,18.985 -0.0005,20.028 -6.66133815e-16,21.10025 C-6.66133815e-16,22.172 0.44175,23.2145 1.2115,23.96 C3.624,26.29675 8.678,30.804 15.417,34.73525 C23.7975,39.62375 32.10175,42.1025 40.09925,42.1025 C48.09725,42.1025 56.40225,39.6235 64.783,34.7345 C71.52225,30.803 76.57575,26.29575 78.98825,23.959 C79.758,23.21375 80.19925,22.17075 80.19875,21.0985 C80.199,20.02675 79.7575,18.9845 78.9875,18.23925 Z M76.37975,21.26575 C72.24125,25.274 57.395,38.35275 40.0995,38.35275 C22.805,38.35275 7.95875,25.27475 3.8205,21.2665 C3.77575,21.22325 3.75,21.1625 3.75,21.0995 C3.75,21.0365 3.77525,20.97625 3.81925,20.93325 C7.95775,16.925 22.804,3.84625 40.09925,3.84625 C57.3945,3.84625 72.24025,16.9245 76.3785,20.9325 L76.3785,20.93275 C76.42325,20.976 76.44875,21.0365 76.44875,21.09925 C76.449,21.16225 76.42375,21.22275 76.37975,21.26575 Z" id="Shape" fill-rule="nonzero"></path>
            <path d="M40.09925,7.3175 C32.49975,7.3175 26.317,13.5 26.317,21.09975 C26.317,28.6995 32.4995,34.882 40.09925,34.882 C47.699,34.882 53.88175,28.6995 53.88175,21.09975 C53.88175,13.5 47.699,7.3175 40.09925,7.3175 Z M40.09925,31.13175 C34.5675,31.13175 30.067,26.63125 30.067,21.0995 C30.067,15.56775 34.5675,11.06725 40.09925,11.06725 C45.63125,11.06725 50.13175,15.56775 50.13175,21.0995 C50.13175,26.63125 45.63125,31.13175 40.09925,31.13175 Z" id="Shape" fill-rule="nonzero"></path>
            <circle id="Oval" cx="12.56175" cy="19.2245" r="1.875"></circle>
            <path d="M26.4435,10.776 C25.98025,9.85 24.855,9.47525 23.92775,9.9375 C20.0645,11.86925 16.2795,14.4285 16.1205,14.5365 C15.2635,15.11775 15.04025,16.28325 15.62125,17.1405 C15.98375,17.67525 16.574,17.96325 17.17475,17.96325 C17.537,17.96325 17.903,17.8585 18.22525,17.64025 C18.26225,17.615 21.9695,15.10975 25.60525,13.29175 C26.53125,12.8285 26.90675,11.70225 26.4435,10.776 Z" id="Path"></path>
        </g>
    </g>
</svg>