<?xml version="1.0" encoding="UTF-8"?>
<svg width="104px" height="104px" viewBox="0 0 104 104" version="1.1" xmlns="http://www.w3.org/2000/svg" xmlns:xlink="http://www.w3.org/1999/xlink">
    <!-- Generator: Sketch 52.1 (67048) - http://www.bohemiancoding.com/sketch -->
    <title>body/mouth</title>
    <desc>Created with Sketch.</desc>
    <g id="body/mouth" stroke="none" stroke-width="1" fill="none" fill-rule="evenodd">
        <g id="woman-lips" transform="translate(14.000000, 29.000000)" fill="#EDECDE">
            <path d="M76.46,24.17625 C75.9415,23.32775 63.5645,3.362 46.56375,0.318 C46.5635,0.318 46.5635,0.318 46.56325,0.318 C45.052,0.04775 43.503,0.53225 42.421,1.6145 L39.1475,4.8875 C38.78675,5.249 38.1985,5.2485 37.83775,4.8875 L34.56475,1.6145 C33.4825,0.5325 31.9345,0.04775 30.42175,0.318 C13.42075,3.362 1.04375,23.32775 0.525,24.17625 C0.10775,24.85875 0.16975,25.73125 0.67925,26.34825 C0.85125,26.5565 4.96925,31.50625 11.653,36.51075 C20.591,43.20325 29.87175,46.7405 38.4925,46.7405 C47.11325,46.7405 56.394,43.20325 65.332,36.51075 C72.01525,31.506 76.1335,26.5565 76.3055,26.34825 C76.81525,25.73125 76.87725,24.85875 76.46,24.17625 Z M31.08225,4.0095 C31.3875,3.95575 31.69775,4.051 31.91275,4.26625 L35.18575,7.53925 C36.069,8.42225 37.24325,8.909 38.49275,8.909 C39.74175,8.909 40.916,8.4225 41.79925,7.53925 L45.07275,4.26625 C45.288,4.05075 45.598,3.955 45.90325,4.0095 L45.90275,4.0095 C56.64175,5.93225 65.7,15.91975 70.20425,21.7975 C65.57975,20.74875 58.1885,19.24175 49.46725,18.08175 C46.1125,17.63625 42.6835,18.79625 40.2905,21.18925 C39.81025,21.6695 39.17175,21.934 38.49275,21.934 C37.8195,21.934 37.186,21.67425 36.707,21.20175 C36.702,21.1965 36.697,21.1915 36.69175,21.18625 C34.3015,18.796 30.87225,17.6355 27.518,18.08175 C18.7935,19.24225 11.3995,20.75 6.7755,21.79875 C11.2735,15.922 20.324,5.93575 31.08225,4.0095 Z M38.49275,42.9905 C23.2895,42.9905 10.10175,30.86 5.4025,25.9685 C9.515,24.9825 17.83525,23.1525 28.01275,21.799 C30.2115,21.5055 32.457,22.2635 34.0265,23.824 C34.03175,23.8295 34.0375,23.83525 34.04275,23.84075 C35.2315,25.02925 36.81175,25.68375 38.49275,25.68375 C40.17375,25.68375 41.754,25.02925 42.94525,23.838 C44.515,22.26775 46.76725,21.50475 48.973,21.799 C59.15275,23.15275 67.47425,24.98325 71.58575,25.96925 C66.894,30.861 53.7245,42.9905 38.49275,42.9905 Z" id="Shape" fill-rule="nonzero"></path>
            <path d="M21.29675,14.499 C21.68125,14.49875 22.069,14.381 22.403,14.13675 C26.8035,10.915 30.06375,9.9775 30.1375,9.9565 C31.134,9.68575 31.72475,8.6595 31.45675,7.66125 C31.18825,6.661 30.15925,6.0695 29.15975,6.336 C29.00175,6.3785 25.2335,7.4165 20.18725,11.11075 C19.35175,11.7225 19.1705,12.89575 19.782,13.73125 C20.14975,14.23325 20.7195,14.499 21.29675,14.499 Z" id="Path"></path>
            <circle id="Oval" cx="17.215" cy="15.71725" r="1.875"></circle>
        </g>
    </g>
</svg>