<?xml version="1.0" encoding="UTF-8"?>
<svg width="68px" height="68px" viewBox="0 0 68 68" version="1.1" xmlns="http://www.w3.org/2000/svg" xmlns:xlink="http://www.w3.org/1999/xlink">
    <!-- Generator: Sketch 52.1 (67048) - http://www.bohemiancoding.com/sketch -->
    <title>skill/cloud</title>
    <desc>Created with Sketch.</desc>
    <g id="skill/cloud" stroke="none" stroke-width="1" fill="none" fill-rule="evenodd">
        <path d="M15.1482258,49.7727419 L21.6403226,49.7727419 L21.6403226,51.9367742 L15.1482258,51.9367742 L15.1482258,49.7727419 Z M63.8389516,45.4446774 C65.6283992,45.4446774 67.085,46.9012782 67.085,48.6907258 L67.085,63.8389516 C67.085,65.6283992 65.6283992,67.085 63.8389516,67.085 L44.3626613,67.085 C42.5732137,67.085 41.1166129,65.6283992 41.1166129,63.8389516 L41.1166129,59.5108871 L36.5893687,59.5108871 C36.1413464,60.7672515 34.9510229,61.6749194 33.5425,61.6749194 C32.1339771,61.6749194 30.9436536,60.7672515 30.4956313,59.5108871 L25.9683871,59.5108871 L25.9683871,63.8389516 C25.9683871,65.6283992 24.5117863,67.085 22.7223387,67.085 L3.24604839,67.085 C1.45660078,67.085 4.26325641e-14,65.6283992 4.26325641e-14,63.8389516 L4.26325641e-14,53.0187903 C4.26325641e-14,51.2293427 1.45660078,49.7727419 3.24604839,49.7727419 L9.29012286,49.7727419 L12.6671966,46.3967247 C13.2805856,45.7833358 14.0963244,45.445734 14.9633109,45.445734 L22.7223387,45.445734 C24.5117863,45.445734 25.9683871,46.9023349 25.9683871,48.6917824 L25.9683871,57.3479114 L30.4956313,57.3479114 C30.8221382,56.4312621 31.5438344,55.7095658 32.4604839,55.383059 L32.4604839,43.2817018 L24.886371,43.2817018 C23.0969234,43.2817018 21.6403226,41.825101 21.6403226,40.0356534 L21.6403226,37.8716211 C21.6403226,36.4630982 22.5479905,35.2727748 23.8043548,34.8247525 L23.8043548,32.2613042 C22.5479905,31.8132819 21.6403226,30.6229584 21.6403226,29.2144355 L15.1482258,29.2144355 C9.77935483,29.2144355 5.41008065,24.8451613 5.41008065,19.4762903 C5.41008065,14.1074193 9.77935483,9.73814516 15.1482258,9.73814516 C15.5249238,9.73814516 15.9010934,9.75980658 16.2756782,9.80312956 C17.80149,7.1086558 20.671897,5.41008065 23.8043548,5.41008065 C24.0627073,5.41008065 24.3258148,5.42328882 24.5984321,5.45129031 C27.2580362,2.02561021 31.3620895,7.10542736e-14 35.7065323,7.10542736e-14 C41.1240096,7.10542736e-14 45.9804023,3.06113345 48.333576,7.87684492 C49.1646362,7.67608021 50.0083764,7.5741129 50.8547581,7.5741129 C56.8211683,7.5741129 61.6749194,12.4268073 61.6749194,18.3932176 C61.6749194,24.3596278 56.8211683,29.2133789 50.8547581,29.2133789 L45.4446774,29.2133789 C45.4446774,30.6219018 44.5370095,31.8122252 43.2806452,32.2602475 L43.2806452,34.8236958 C44.5370095,35.2717181 45.4446774,36.4620416 45.4446774,37.8705645 L45.4446774,40.0345968 C45.4446774,41.8240444 43.9880766,43.2806452 42.198629,43.2806452 L34.6245161,43.2806452 L34.6245161,55.3820023 C35.5411656,55.7085092 36.2628618,56.4302054 36.5893687,57.3468548 L41.1166129,57.3468548 L41.1166129,53.0187903 C41.1166129,51.2293427 42.5732137,49.7727419 44.3626613,49.7727419 L50.4067358,49.7727419 L53.7838095,46.3956682 C54.3971985,45.7822792 55.2129373,45.4446774 56.0799238,45.4446774 L63.8389516,45.4446774 Z M41.1166129,32.4604839 L25.9683871,32.4604839 L25.9683871,34.6245161 L41.1166129,34.6245161 L41.1166129,32.4604839 Z M43.2806452,29.2144355 L43.2806452,27.0504032 C43.2806452,26.454449 42.7945832,25.9683871 42.198629,25.9683871 L24.886371,25.9683871 C24.2904168,25.9683871 23.8043548,26.454449 23.8043548,27.0504032 L23.8043548,29.2144355 C23.8043548,29.8103897 24.2904168,30.2964516 24.886371,30.2964516 L42.198629,30.2964516 C42.7945832,30.2964516 43.2806452,29.8103897 43.2806452,29.2144355 Z M25.9683871,23.8043548 L41.1166129,23.8043548 L41.1166129,21.6403226 L25.9683871,21.6403226 L25.9683871,23.8043548 Z M42.198629,19.4762903 C42.7945832,19.4762903 43.2806452,18.9902284 43.2806452,18.3942742 L43.2806452,16.2302419 C43.2806452,15.6342877 42.7945832,15.1482258 42.198629,15.1482258 L24.886371,15.1482258 C24.2904168,15.1482258 23.8043548,15.6342877 23.8043548,16.2302419 L23.8043548,18.3942742 C23.8043548,18.9902284 24.2904168,19.4762903 24.886371,19.4762903 L42.198629,19.4762903 Z M15.1482258,27.0504032 L21.6403226,27.0504032 C21.6403226,25.6418803 22.5479905,24.4515568 23.8043548,24.0035345 L23.8043548,21.4400862 C22.5479905,20.9920639 21.6403226,19.8017405 21.6403226,18.3932176 L21.6403226,16.2291853 C21.6403226,14.4397377 23.0969234,12.983137 24.886371,12.983137 L42.198629,12.983137 C43.9880766,12.983137 45.4446774,14.4397377 45.4446774,16.2291853 L45.4446774,18.3932176 C45.4446774,19.8017405 44.5370095,20.9920639 43.2806452,21.4400862 L43.2806452,24.0035345 C44.5370095,24.4515568 45.4446774,25.6418803 45.4446774,27.0504032 L50.8547581,27.0504032 C55.6276748,27.0504032 59.5108871,23.167191 59.5108871,18.3942742 C59.5108871,13.6213574 55.6276748,9.73814516 50.8547581,9.73814516 C49.9212021,9.73814516 48.9860613,9.8950586 48.0794501,10.2036023 L47.1131379,10.5301091 L46.7290433,9.58545835 C44.8941595,5.07670552 40.5682082,2.16403226 35.7065323,2.16403226 C31.8439248,2.16403226 28.2048003,4.05861707 25.9726137,7.23228453 L25.5800658,7.79072739 L24.9059191,7.67608021 C24.5054464,7.60739761 24.1451265,7.5741129 23.8043548,7.5741129 C21.2440764,7.5741129 18.9157341,9.08882985 17.873871,11.4356636 L17.5209477,12.2302692 L16.668226,12.055921 C16.1715975,11.9528969 15.6601758,11.9021774 15.1482258,11.9021774 C10.9717915,11.9021774 7.5741129,15.299856 7.5741129,19.4762903 C7.5741129,23.6527246 10.9717915,27.0504032 15.1482258,27.0504032 Z M23.8043548,40.0345968 C23.8043548,40.6316076 24.2904168,41.1166129 24.886371,41.1166129 L42.198629,41.1166129 C42.7945832,41.1166129 43.2806452,40.6316076 43.2806452,40.0345968 L43.2806452,37.8705645 C43.2806452,37.2735537 42.7945832,36.7885484 42.198629,36.7885484 L24.886371,36.7885484 C24.2904168,36.7885484 23.8043548,37.2735537 23.8043548,37.8705645 L23.8043548,40.0345968 Z M3.24604839,51.9367742 C2.65009419,51.9367742 2.16403226,52.4217795 2.16403226,53.0187903 L2.16403226,54.1008065 L23.8043548,54.1008065 L23.8043548,48.6907258 C23.8043548,48.093715 23.3182929,47.6087097 22.7223387,47.6087097 L14.9633109,47.6087097 C14.6743155,47.6087097 14.4016981,47.7212435 14.1972351,47.9257066 L10.1861675,51.9367742 L3.24604839,51.9367742 Z M22.7223387,64.9209677 C23.3182929,64.9209677 23.8043548,64.4359624 23.8043548,63.8389516 L23.8043548,56.2648387 L2.16403226,56.2648387 L2.16403226,63.8389516 C2.16403226,64.4359624 2.65009419,64.9209677 3.24604839,64.9209677 L22.7223387,64.9209677 Z M33.5425,59.5108871 C34.1384542,59.5108871 34.6245161,59.0258818 34.6245161,58.428871 C34.6245161,57.8318602 34.1384542,57.3468548 33.5425,57.3468548 C32.9465458,57.3468548 32.4604839,57.8318602 32.4604839,58.428871 C32.4604839,59.0258818 32.9465458,59.5108871 33.5425,59.5108871 Z M44.3626613,51.9367742 C43.7667071,51.9367742 43.2806452,52.4217795 43.2806452,53.0187903 L43.2806452,54.1008065 L64.9209677,54.1008065 L64.9209677,48.6907258 C64.9209677,48.093715 64.4349058,47.6087097 63.8389516,47.6087097 L56.0799238,47.6087097 C55.7909284,47.6087097 55.518311,47.7212435 55.313848,47.9257066 L51.3027804,51.9367742 L44.3626613,51.9367742 Z M63.8389516,64.9209677 C64.4349058,64.9209677 64.9209677,64.4359624 64.9209677,63.8389516 L64.9209677,56.2648387 L43.2806452,56.2648387 L43.2806452,63.8389516 C43.2806452,64.4359624 43.7667071,64.9209677 44.3626613,64.9209677 L63.8389516,64.9209677 Z M56.2648387,49.7727419 L62.7569355,49.7727419 L62.7569355,51.9367742 L56.2648387,51.9367742 L56.2648387,49.7727419 Z M57.3468548,18.3942742 C57.3468548,21.9747543 54.4352382,24.886371 50.8547581,24.886371 L50.8547581,22.7223387 C53.2417449,22.7223387 55.1828226,20.781261 55.1828226,18.3942742 C55.1828226,16.0072874 53.2417449,14.0662097 50.8547581,14.0662097 L50.8547581,11.9021774 C54.4352382,11.9021774 57.3468548,14.8137941 57.3468548,18.3942742 Z M9.73814516,19.4762903 C9.73814516,16.4933493 12.1652848,14.0662097 15.1482258,14.0662097 L15.1482258,16.2302419 C13.3587782,16.2302419 11.9021774,17.6868427 11.9021774,19.4762903 L9.73814516,19.4762903 Z M35.7065323,6.49209677 C33.6830352,6.49209677 31.7821105,7.27983414 30.3503412,8.71001858 L28.820831,7.18050844 C30.6599414,5.34086962 33.1055726,4.32806452 35.7065323,4.32806452 C38.307492,4.32806452 40.7531231,5.34086962 42.5922335,7.18050844 L41.0627234,8.71001858 C39.630954,7.27983414 37.7300293,6.49209677 35.7065323,6.49209677 Z M4.32806452,31.82649 L1.84703535,34.3075192 L0.316996913,32.7774808 L5.41008065,27.6843971 L10.5031644,32.7774808 L8.97312595,34.3075192 L6.49209677,31.82649 L6.49209677,42.198629 L4.32806452,42.198629 L4.32806452,31.82649 Z M4.32806452,44.3626613 L6.49209677,44.3626613 L6.49209677,46.5266935 L4.32806452,46.5266935 L4.32806452,44.3626613 Z M62.7569355,29.2144355 L62.7569355,39.5865745 L65.2379647,37.1055453 L66.7680031,38.6355837 L61.6749194,43.7286675 L56.5818356,38.6355837 L58.1118741,37.1055453 L60.5929032,39.5865745 L60.5929032,29.2144355 L62.7569355,29.2144355 Z M60.5929032,24.886371 L62.7569355,24.886371 L62.7569355,27.0504032 L60.5929032,27.0504032 L60.5929032,24.886371 Z" id="Combined-Shape" fill="#EDECDE"></path>
    </g>
</svg>