<?xml version="1.0" encoding="UTF-8"?>
<svg width="68px" height="68px" viewBox="0 0 68 68" version="1.1" xmlns="http://www.w3.org/2000/svg" xmlns:xlink="http://www.w3.org/1999/xlink">
    <!-- Generator: Sketch 52.1 (67048) - http://www.bohemiancoding.com/sketch -->
    <title>skill/devices</title>
    <desc>Created with Sketch.</desc>
    <g id="skill/devices" stroke="none" stroke-width="1" fill="none" fill-rule="evenodd">
        <path d="M61.6749194,4.26325641e-14 C64.6578604,4.26325641e-14 67.085,2.42713963 67.085,5.41008065 L67.085,44.3626613 C67.085,47.3456023 64.6578604,49.7727419 61.6749194,49.7727419 L58.428871,49.7727419 L58.428871,55.1828226 C58.428871,58.1657636 56.0017313,60.5929032 53.0187903,60.5929032 L38.9525806,60.5929032 L38.9525806,64.9209677 L43.2806452,64.9209677 L43.2806452,67.085 L15.1482258,67.085 L15.1482258,64.9209677 L19.4762903,64.9209677 L19.4762903,60.5929032 L5.41008065,60.5929032 C2.42713963,60.5929032 0,58.1657636 0,55.1828226 L0,24.886371 C0,21.90343 2.42713963,19.4762903 5.41008065,19.4762903 L38.9525806,19.4762903 L38.9525806,5.41008065 C38.9525806,2.42713963 41.3797203,4.26325641e-14 44.3626613,4.26325641e-14 L61.6749194,4.26325641e-14 Z M44.3626613,2.16403226 C42.5732137,2.16403226 41.1166129,3.62063304 41.1166129,5.41008065 L41.1166129,6.49209677 L64.9209677,6.49209677 L64.9209677,5.41008065 C64.9209677,3.62063304 63.464367,2.16403226 61.6749194,2.16403226 L44.3626613,2.16403226 Z M38.9525806,34.6245161 L38.9525806,25.9683871 L6.49209677,25.9683871 L6.49209677,34.6245161 L38.9525806,34.6245161 Z M64.9209677,8.65612903 L41.1166129,8.65612903 L41.1166129,38.9525806 L64.9209677,38.9525806 L64.9209677,8.65612903 Z M36.7885484,64.9209677 L36.7885484,60.5929032 L21.6403226,60.5929032 L21.6403226,64.9209677 L36.7885484,64.9209677 Z M53.0187903,58.428871 C54.8082379,58.428871 56.2648387,56.9722702 56.2648387,55.1828226 L56.2648387,54.1008065 L2.16403226,54.1008065 L2.16403226,55.1828226 C2.16403226,56.9722702 3.62063304,58.428871 5.41008065,58.428871 L53.0187903,58.428871 Z M56.2648387,51.9367742 L56.2648387,49.7727419 L44.3626613,49.7727419 C41.3797203,49.7727419 38.9525806,47.3456023 38.9525806,44.3626613 L38.9525806,36.7885484 L4.32806452,36.7885484 L4.32806452,23.8043548 L38.9525806,23.8043548 L38.9525806,21.6403226 L5.41008065,21.6403226 C3.62063304,21.6403226 2.16403226,23.0969234 2.16403226,24.886371 L2.16403226,51.9367742 L56.2648387,51.9367742 Z M61.6749194,47.6087097 C63.464367,47.6087097 64.9209677,46.1521089 64.9209677,44.3626613 L64.9209677,41.1166129 L41.1166129,41.1166129 L41.1166129,44.3626613 C41.1166129,46.1521089 42.5732137,47.6087097 44.3626613,47.6087097 L61.6749194,47.6087097 Z M49.7727419,43.2806452 L56.2648387,43.2806452 L56.2648387,45.4446774 L49.7727419,45.4446774 L49.7727419,43.2806452 Z M62.7569355,10.8201613 L62.7569355,23.8043548 L43.2806452,23.8043548 L43.2806452,10.8201613 L62.7569355,10.8201613 Z M60.5929032,21.6403226 L60.5929032,12.9841935 L45.4446774,12.9841935 L45.4446774,21.6403226 L60.5929032,21.6403226 Z M60.5929032,34.6245161 L62.7569355,34.6245161 L62.7569355,36.7885484 L60.5929032,36.7885484 L60.5929032,34.6245161 Z M43.2806452,34.6245161 L58.428871,34.6245161 L58.428871,36.7885484 L43.2806452,36.7885484 L43.2806452,34.6245161 Z M43.2806452,30.2964516 L62.7569355,30.2964516 L62.7569355,32.4604839 L43.2806452,32.4604839 L43.2806452,30.2964516 Z M43.2806452,25.9683871 L62.7569355,25.9683871 L62.7569355,28.1324194 L43.2806452,28.1324194 L43.2806452,25.9683871 Z M4.32806452,49.7727419 L4.32806452,38.9525806 L19.4762903,38.9525806 L19.4762903,49.7727419 L4.32806452,49.7727419 Z M6.49209677,41.1166129 L6.49209677,47.6087097 L17.3122581,47.6087097 L17.3122581,41.1166129 L6.49209677,41.1166129 Z M21.6403226,38.9525806 L36.7885484,38.9525806 L36.7885484,41.1166129 L21.6403226,41.1166129 L21.6403226,38.9525806 Z M21.6403226,43.2806452 L36.7885484,43.2806452 L36.7885484,45.4446774 L21.6403226,45.4446774 L21.6403226,43.2806452 Z M21.6403226,47.6087097 L32.4604839,47.6087097 L32.4604839,49.7727419 L21.6403226,49.7727419 L21.6403226,47.6087097 Z M34.6245161,47.6087097 L36.7885484,47.6087097 L36.7885484,49.7727419 L34.6245161,49.7727419 L34.6245161,47.6087097 Z" id="Combined-Shape" fill="#EDECDE" fill-rule="nonzero"></path>
    </g>
</svg>