<?xml version="1.0" encoding="UTF-8"?>
<svg width="68px" height="68px" viewBox="0 0 68 68" version="1.1" xmlns="http://www.w3.org/2000/svg" xmlns:xlink="http://www.w3.org/1999/xlink">
    <!-- Generator: Sketch 52.1 (67048) - http://www.bohemiancoding.com/sketch -->
    <title>skill/server</title>
    <desc>Created with Sketch.</desc>
    <g id="skill/server" stroke="none" stroke-width="1" fill="none" fill-rule="evenodd">
        <path d="M67.085,27.9052382 L62.8229765,28.9191 C62.5382075,29.7749917 62.1953226,30.6060519 61.8006615,31.4011859 L64.0941342,35.1253713 L56.7646371,42.4548682 L53.0404517,40.1613955 C52.2453179,40.5560567 51.4142576,40.897885 50.558366,41.1837106 L49.5455607,45.4446774 L45.4446774,45.4446774 L45.4446774,63.8389516 C45.4446774,65.6283992 43.9880766,67.085 42.198629,67.085 L3.24604839,67.085 C1.45660078,67.085 -1.56319402e-13,65.6283992 -1.56319402e-13,63.8389516 L-1.56319402e-13,11.9021774 C-1.56319402e-13,10.1127298 1.45660078,8.65612903 3.24604839,8.65612903 L26.2948938,8.65612903 L31.9606855,2.98980925 L35.6848708,5.28328188 C36.4800047,4.88862069 37.3110649,4.54679245 38.1669566,4.2609668 L39.1797618,4.26325641e-14 L49.5455607,4.26325641e-14 L50.5594226,4.26202353 C51.4153142,4.54679245 52.2463744,4.88967741 53.0415085,5.28433847 L56.7656938,2.99086584 L64.0951908,10.3203629 L61.8017181,14.0445483 C62.1963793,14.8396821 62.5382075,15.6707424 62.8240332,16.526634 L67.085,17.5394393 L67.085,27.9052382 Z M21.6403226,17.5394393 L25.9012894,16.526634 C26.0571462,16.0580069 26.2346645,15.5994181 26.4238061,15.1482258 L7.5741129,15.1482258 C6.97710212,15.1482258 6.49209677,15.6332312 6.49209677,16.2302419 L6.49209677,24.886371 C6.49209677,25.4833818 6.97710212,25.9683871 7.5741129,25.9683871 L21.6403226,25.9683871 L21.6403226,17.5394393 Z M43.2806452,63.8389516 L43.2806452,45.4446774 L7.5741129,45.4446774 C5.7846653,45.4446774 4.32806452,43.9880766 4.32806452,42.198629 L4.32806452,33.5425 C4.32806452,31.7530524 5.7846653,30.2964516 7.5741129,30.2964516 L26.4248627,30.2964516 C26.2357211,29.8452593 26.0582028,29.3866705 25.9023461,28.9180434 L22.5965965,28.1324194 L7.5741129,28.1324194 C5.7846653,28.1324194 4.32806452,26.6758186 4.32806452,24.886371 L4.32806452,16.2302419 C4.32806452,14.4407943 5.7846653,12.9841935 7.5741129,12.9841935 L26.2711191,12.9841935 L24.9381471,10.8201613 L3.24604839,10.8201613 C2.6490376,10.8201613 2.16403226,11.3051666 2.16403226,11.9021774 L2.16403226,63.8389516 C2.16403226,64.4359624 2.6490376,64.9209677 3.24604839,64.9209677 L42.198629,64.9209677 C42.7956398,64.9209677 43.2806452,64.4359624 43.2806452,63.8389516 Z M26.2711191,32.4604839 L7.5741129,32.4604839 C6.97710212,32.4604839 6.49209677,32.9454892 6.49209677,33.5425 L6.49209677,42.198629 C6.49209677,42.7956398 6.97710212,43.2806452 7.5741129,43.2806452 L38.6656984,43.2806452 L38.1669566,41.1826539 C37.3110649,40.897885 36.4800047,40.555 35.6848708,40.160339 L31.9606855,42.4538116 L24.6311884,35.1243145 L26.2711191,32.4604839 Z M61.3558091,34.803091 L59.3095941,31.4825484 L59.6059862,30.9325588 C60.1522776,29.9186969 60.6024131,28.8292843 60.9400148,27.6976052 L61.1185898,27.0979527 L64.9209677,26.1955683 L64.9209677,19.2491091 L61.1175331,18.345668 L60.9389582,17.7460155 C60.6013565,16.6143366 60.1522776,15.5259805 59.6049294,14.5110619 L59.3085374,13.9610723 L61.3558091,10.6405297 L56.4434136,5.72813415 L53.1228709,7.77540591 L52.5728813,7.47901383 C51.5590195,6.93272242 50.4696068,6.48258693 49.3379278,6.14498519 L48.7382753,5.96641019 L47.8358909,2.16403226 L40.8894317,2.16403226 L39.9859906,5.96746692 L39.3863381,6.14604178 C38.2546591,6.48364352 37.1663031,6.93272242 36.1513845,7.48007055 L35.6013949,7.77646263 L32.2808523,5.72919087 L27.3684567,10.6415864 L29.4157285,13.9621291 L29.1193364,14.5121187 C28.573045,15.5259805 28.1229095,16.6153932 27.7853078,17.7470722 L27.6067328,18.3467247 L23.8043548,19.2491091 L23.8043548,26.1955683 L27.6077895,27.0990094 L27.7863644,27.6986619 C28.1239661,28.8303409 28.573045,29.9186969 29.1203931,30.9336155 L29.4167852,31.4836051 L27.3695135,34.8041477 L32.281909,39.7165433 L35.6024516,37.6692715 L36.1524412,37.9656636 C37.1663031,38.511955 38.2557157,38.9620905 39.3873948,39.2996922 L39.9870473,39.4782672 L40.8894317,43.2806452 L47.8358909,43.2806452 L48.7382753,39.4772105 L49.3379278,39.2986356 C50.4696068,38.9610339 51.5579629,38.511955 52.5728813,37.9646069 L53.1228709,37.6682148 L56.4434136,39.7154865 L61.3558091,34.803091 Z M44.3626613,7.5741129 C52.7160583,7.5741129 59.5108871,14.3689417 59.5108871,22.7223387 C59.5108871,31.0757357 52.7160583,37.8705645 44.3626613,37.8705645 C36.0092643,37.8705645 29.2144355,31.0757357 29.2144355,22.7223387 C29.2144355,14.3689417 36.0092643,7.5741129 44.3626613,7.5741129 Z M57.2919087,23.8043548 L57.2919087,23.8054114 L55.1828226,23.8054114 L55.1828226,21.6413792 L57.294022,21.6413792 C57.0631426,18.8734679 55.9673899,16.3512291 54.2693432,14.3472803 L52.7805143,15.8366375 L51.2510043,14.306599 L52.739833,12.8177701 C50.7358843,11.1197234 48.2136454,10.0239707 45.445734,9.79309129 L45.445734,11.9021774 L43.2817018,11.9021774 L43.2817018,9.7920347 C40.5137905,10.0229141 37.9915516,11.1186667 35.9876029,12.8167135 L37.47696,14.3055423 L35.9469216,15.8350525 L34.4580927,14.3462235 C32.760046,16.3501725 31.6642933,18.8724112 31.4334139,21.6403226 L33.5425,21.6403226 L33.5425,23.8043548 L31.4313006,23.8043548 C31.559156,25.3386199 31.9564588,26.7952207 32.5730177,28.1324194 L40.1872836,28.1324194 C40.5798315,26.6187591 41.7659282,25.433719 43.2795886,25.0401145 L43.2795886,16.2302419 L45.4436208,16.2302419 L45.4436208,25.0401145 C46.9572811,25.4326622 48.1423211,26.6187591 48.5359257,28.1324194 L56.1501915,28.1324194 C56.7667506,26.7952207 57.1640534,25.3386199 57.2919087,23.8043548 Z M44.3626613,27.0504032 C43.1691679,27.0504032 42.198629,28.0209421 42.198629,29.2144355 C42.198629,30.4079289 43.1691679,31.3784677 44.3626613,31.3784677 C45.5561547,31.3784677 46.5266935,30.4079289 46.5266935,29.2144355 C46.5266935,28.0209421 45.5561547,27.0504032 44.3626613,27.0504032 Z M44.3626613,35.7065323 C48.6949524,35.7065323 52.5274452,33.5662747 54.8874871,30.2964516 L48.5369823,30.2964516 C48.0535619,32.1588084 46.3740067,33.5425 44.3626613,33.5425 C42.3513158,33.5425 40.6717606,32.1588084 40.1883403,30.2964516 L33.8378355,30.2964516 C36.1978774,33.5662747 40.0303701,35.7065323 44.3626613,35.7065323 Z M8.65612903,17.3122581 L10.8201613,17.3122581 L10.8201613,19.4762903 L8.65612903,19.4762903 L8.65612903,17.3122581 Z M8.65612903,21.6403226 L10.8201613,21.6403226 L10.8201613,23.8043548 L8.65612903,23.8043548 L8.65612903,21.6403226 Z M12.9841935,17.3122581 L15.1482258,17.3122581 L15.1482258,19.4762903 L12.9841935,19.4762903 L12.9841935,17.3122581 Z M12.9841935,21.6403226 L15.1482258,21.6403226 L15.1482258,23.8043548 L12.9841935,23.8043548 L12.9841935,21.6403226 Z M8.65612903,34.6245161 L10.8201613,34.6245161 L10.8201613,36.7885484 L8.65612903,36.7885484 L8.65612903,34.6245161 Z M8.65612903,38.9525806 L10.8201613,38.9525806 L10.8201613,41.1166129 L8.65612903,41.1166129 L8.65612903,38.9525806 Z M12.9841935,34.6245161 L15.1482258,34.6245161 L15.1482258,36.7885484 L12.9841935,36.7885484 L12.9841935,34.6245161 Z M12.9841935,38.9525806 L15.1482258,38.9525806 L15.1482258,41.1166129 L12.9841935,41.1166129 L12.9841935,38.9525806 Z M21.6403226,34.6245161 L23.8043548,34.6245161 L23.8043548,41.1166129 L21.6403226,41.1166129 L21.6403226,34.6245161 Z M7.5741129,47.6087097 L37.8705645,47.6087097 C39.6600121,47.6087097 41.1166129,49.0653105 41.1166129,50.8547581 L41.1166129,59.5108871 C41.1166129,61.3003347 39.6600121,62.7569355 37.8705645,62.7569355 L7.5741129,62.7569355 C5.7846653,62.7569355 4.32806452,61.3003347 4.32806452,59.5108871 L4.32806452,50.8547581 C4.32806452,49.0653105 5.7846653,47.6087097 7.5741129,47.6087097 Z M38.9525806,50.8547581 C38.9525806,50.2577473 38.4675753,49.7727419 37.8705645,49.7727419 L7.5741129,49.7727419 C6.97710212,49.7727419 6.49209677,50.2577473 6.49209677,50.8547581 L6.49209677,59.5108871 C6.49209677,60.1078979 6.97710212,60.5929032 7.5741129,60.5929032 L37.8705645,60.5929032 C38.4675753,60.5929032 38.9525806,60.1078979 38.9525806,59.5108871 L38.9525806,50.8547581 Z M8.65612903,51.9367742 L10.8201613,51.9367742 L10.8201613,54.1008065 L8.65612903,54.1008065 L8.65612903,51.9367742 Z M8.65612903,56.2648387 L10.8201613,56.2648387 L10.8201613,58.428871 L8.65612903,58.428871 L8.65612903,56.2648387 Z M12.9841935,51.9367742 L15.1482258,51.9367742 L15.1482258,54.1008065 L12.9841935,54.1008065 L12.9841935,51.9367742 Z M12.9841935,56.2648387 L15.1482258,56.2648387 L15.1482258,58.428871 L12.9841935,58.428871 L12.9841935,56.2648387 Z M21.6403226,51.9367742 L23.8043548,51.9367742 L23.8043548,58.428871 L21.6403226,58.428871 L21.6403226,51.9367742 Z M25.9683871,51.9367742 L28.1324194,51.9367742 L28.1324194,58.428871 L25.9683871,58.428871 L25.9683871,51.9367742 Z M30.2964516,51.9367742 L32.4604839,51.9367742 L32.4604839,58.428871 L30.2964516,58.428871 L30.2964516,51.9367742 Z M34.6245161,51.9367742 L36.7885484,51.9367742 L36.7885484,58.428871 L34.6245161,58.428871 L34.6245161,51.9367742 Z" id="Combined-Shape" fill="#EDECDE" fill-rule="nonzero"></path>
    </g>
</svg>