<?xml version="1.0" encoding="UTF-8"?>
<svg width="68px" height="69px" viewBox="0 0 68 69" version="1.1" xmlns="http://www.w3.org/2000/svg" xmlns:xlink="http://www.w3.org/1999/xlink">
    <!-- Generator: Sketch 52.1 (67048) - http://www.bohemiancoding.com/sketch -->
    <title>skill/tools</title>
    <desc>Created with Sketch.</desc>
    <g id="skill/tools" stroke="none" stroke-width="1" fill="none" fill-rule="evenodd">
        <path d="M63.8389516,61.6749194 C65.6283992,61.6749194 67.085,63.1315201 67.085,64.9209677 C67.085,66.7104153 65.6283992,68.1670161 63.8389516,68.1670161 C62.049504,68.1670161 60.5929032,66.7104153 60.5929032,64.9209677 C60.5929032,63.1315201 62.049504,61.6749194 63.8389516,61.6749194 Z M63.8389516,66.0029839 C64.4349058,66.0029839 64.9209677,65.5179785 64.9209677,64.9209677 C64.9209677,64.323957 64.4349058,63.8389516 63.8389516,63.8389516 C63.2429974,63.8389516 62.7569355,64.323957 62.7569355,64.9209677 C62.7569355,65.5179785 63.2429974,66.0029839 63.8389516,66.0029839 Z M6.49209677,3.24604839 C6.49209677,5.03549599 5.03549599,6.49209677 3.24604839,6.49209677 C1.45660078,6.49209677 -2.66453526e-15,5.03549599 -2.66453526e-15,3.24604839 C-2.66453526e-15,1.45660078 1.45660078,-1.02584607e-13 3.24604839,-1.02584607e-13 C5.03549599,-1.02584607e-13 6.49209677,1.45660078 6.49209677,3.24604839 Z M2.16403226,3.24604839 C2.16403226,3.84200258 2.65009419,4.32806452 3.24604839,4.32806452 C3.84200258,4.32806452 4.32806452,3.84200258 4.32806452,3.24604839 C4.32806452,2.65009419 3.84200258,2.16403226 3.24604839,2.16403226 C2.65009419,2.16403226 2.16403226,2.65009419 2.16403226,3.24604839 Z M58.1271955,42.8791157 L49.7241357,51.3492732 C49.6253383,51.9874937 49.3432112,52.5602015 48.9300584,53.0187903 C49.4483484,53.594668 49.7737985,54.3485923 49.7737985,55.1828226 C49.7737985,56.0170528 49.4494051,56.7709772 48.9300584,57.3468548 C49.4483484,57.9227325 49.7737985,58.6766569 49.7737985,59.5108871 C49.7737985,61.3003347 48.3171977,62.7569355 46.5277501,62.7569355 L38.9525806,62.7569355 L38.9525806,63.8389516 C38.9525806,66.2259384 37.011503,68.1670161 34.6245161,68.1670161 C32.2375293,68.1670161 30.2964516,66.2259384 30.2964516,63.8389516 L30.2964516,62.7569355 L24.4383487,62.7569355 L21.1923003,59.5108871 L12.9841935,59.5108871 L12.9841935,62.7569355 L5.41008065,62.7569355 L5.41008065,41.1166129 L11.8556845,41.1166129 L13.2473009,38.5816942 C12.798222,37.6692715 12.4141274,36.7483954 12.0981872,35.8296327 L7.5741129,34.3217841 L7.5741129,21.941998 L12.0981872,20.433621 C12.4162407,19.5085183 12.8056187,18.5791891 13.2589242,17.6593697 L11.1197234,13.3814963 L19.8735931,4.62762663 L24.1514664,6.76682743 C25.0712859,6.31352191 26.0006151,5.92414394 26.9257178,5.60609044 L28.4340948,1.08201613 L40.8149375,1.08201613 L42.3233145,5.60609044 C43.2484172,5.92414394 44.1777464,6.31352191 45.0975658,6.76682743 L49.3754391,4.62762663 L58.1293089,13.3814963 L55.9901081,17.6593697 C56.4434136,18.5791891 56.8327915,19.5085183 57.150845,20.433621 L61.6749194,21.941998 L61.6749194,34.3228407 L57.150845,35.8312177 C56.8317348,36.7563204 56.4434136,37.6856496 55.9901081,38.6054691 L58.1271955,42.8791157 Z M15.4308814,38.1019723 L15.6976871,38.6149789 L13.1368804,43.2806452 L22.3921336,43.2806452 C17.833718,39.595556 15.1482258,34.0391285 15.1482258,28.1324194 C15.1482258,17.3936205 23.8857173,8.65612903 34.6245161,8.65612903 C45.3633149,8.65612903 54.1008065,17.3936205 54.1008065,28.1324194 C54.1008065,34.1115094 51.416371,39.6320108 46.8262557,43.3107598 C48.4741113,43.4645034 49.7737985,44.838685 49.7737985,46.5266935 C49.7737985,47.3609238 49.4494051,48.1148481 48.9300584,48.6907258 C48.9902879,48.7578235 49.0489324,48.8291479 49.1038785,48.9015288 L55.4977062,42.4585665 L53.564025,38.5922609 L53.8181508,38.1019723 C54.4135767,36.95867 54.8991104,35.796348 55.2620719,34.6493476 L55.4284952,34.123661 L59.5108871,32.7632159 L59.5108871,23.5026794 L55.4274386,22.140121 L55.2620719,21.6133778 C54.900167,20.467434 54.4146333,19.3061687 53.8181508,18.1618098 L53.564025,17.6715212 L55.4955929,13.8078572 L48.9480217,7.26028603 L45.0843577,9.19185388 L44.5940691,8.93719963 C43.4507668,8.34124543 42.2884448,7.8551835 41.142501,7.49380702 L40.6157578,7.32844033 L39.2553127,3.24604839 L29.9947762,3.24604839 L28.6322178,7.32949692 L28.1054746,7.49486361 C26.9595308,7.85676852 25.7982655,8.34230216 24.6539066,8.93878465 L24.163618,9.19291047 L20.299954,7.26134262 L13.7523828,13.8089138 L15.6839507,17.6725778 L15.4292964,18.1628664 C14.8333422,19.3061687 14.3472803,20.4684907 13.9859038,21.6144345 L13.8205371,22.1411777 L9.73814516,23.5016228 L9.73814516,32.7621593 L13.8205371,34.123661 L13.9869604,34.6493476 C14.3499219,35.796348 14.8354555,36.95867 15.4308814,38.1019723 Z M47.6097663,55.1828226 C47.6097663,54.5858118 47.1237043,54.1008065 46.5277501,54.1008065 L37.8705645,54.1008065 C37.2746103,54.1008065 36.7885484,54.5858118 36.7885484,55.1828226 C36.7885484,55.7798334 37.2746103,56.2648387 37.8705645,56.2648387 L46.5277501,56.2648387 C47.1237043,56.2648387 47.6097663,55.7798334 47.6097663,55.1828226 Z M32.0124616,28.1324194 L30.2964516,26.4164094 L30.2964516,21.6403226 C29.1029582,21.6403226 28.1324194,22.6108614 28.1324194,23.8043548 L28.1324194,28.7664132 L31.82649,32.4604839 L37.4225422,32.4604839 L41.1166129,28.7664132 L41.1166129,23.8043548 C41.1166129,22.6108614 40.1460741,21.6403226 38.9525806,21.6403226 L38.9525806,26.4164094 L37.2365707,28.1324194 L32.0124616,28.1324194 Z M32.4604839,34.6245161 L32.4604839,38.9525806 L36.7885484,38.9525806 L36.7885484,34.6245161 L32.4604839,34.6245161 Z M38.9525806,33.9905223 L38.9525806,38.9525806 L41.7506067,38.9525806 C45.4177326,36.5344226 47.6087097,32.5180716 47.6087097,28.1324194 C47.6087097,20.9725158 41.7844197,15.1482258 34.6245161,15.1482258 C27.4646125,15.1482258 21.6403226,20.9725158 21.6403226,28.1324194 C21.6403226,32.5502996 23.9221721,36.6369182 27.6162427,39.0207349 L27.6843971,38.9525806 L30.2964516,38.9525806 L30.2964516,33.9905223 L25.9683871,29.6624578 L25.9683871,23.8043548 C25.9683871,21.417368 27.9094648,19.4762903 30.2964516,19.4762903 L32.4604839,19.4762903 L32.4604839,25.5203648 L32.9085062,25.9683871 L36.3405261,25.9683871 L36.7885484,25.5203648 L36.7885484,19.4762903 L38.9525806,19.4762903 C41.3395675,19.4762903 43.2806452,21.417368 43.2806452,23.8043548 L43.2806452,29.6624578 L38.9525806,33.9905223 Z M49.7727419,28.1324194 C49.7727419,32.6802684 47.7635098,36.895799 44.3151118,39.7588095 C44.8777813,40.2464563 45.2692725,40.9174332 45.3929013,41.6845657 C49.5196727,38.4136859 51.9367742,33.4796289 51.9367742,28.1324194 C51.9367742,18.5871139 44.1698215,10.8201613 34.6245161,10.8201613 C25.0792107,10.8201613 17.3122581,18.5871139 17.3122581,28.1324194 C17.3122581,33.6909602 19.989297,38.8997478 24.4827282,42.1542495 L26.040768,40.5962097 C21.9626027,37.7839187 19.4762903,33.130404 19.4762903,28.1324194 C19.4762903,19.7790223 26.2711191,12.9841935 34.6245161,12.9841935 C42.9779131,12.9841935 49.7727419,19.7790223 49.7727419,28.1324194 Z M46.5277501,45.4446774 L37.8705645,45.4446774 C37.2746103,45.4446774 36.7885484,45.9296828 36.7885484,46.5266935 C36.7885484,47.1237043 37.2746103,47.6087097 37.8705645,47.6087097 L46.5277501,47.6087097 C47.1237043,47.6087097 47.6097663,47.1237043 47.6097663,46.5266935 C47.6097663,45.9296828 47.1237043,45.4446774 46.5277501,45.4446774 Z M37.8705645,51.9367742 L46.5277501,51.9367742 C47.1237043,51.9367742 47.6097663,51.4517688 47.6097663,50.8547581 C47.6097663,50.2577473 47.1237043,49.7727419 46.5277501,49.7727419 L37.8705645,49.7727419 C37.2746103,49.7727419 36.7885484,50.2577473 36.7885484,50.8547581 C36.7885484,51.4517688 37.2746103,51.9367742 37.8705645,51.9367742 Z M10.8201613,60.5929032 L10.8201613,43.2806452 L7.5741129,43.2806452 L7.5741129,60.5929032 L10.8201613,60.5929032 Z M25.3343933,60.5929032 L30.2964516,60.5929032 L30.2964516,46.9747159 L27.8154224,49.455745 L26.285384,47.9257066 L30.9304454,43.2806452 L42.198629,43.2806452 C42.7945832,43.2806452 43.2806452,42.7956398 43.2806452,42.198629 C43.2806452,41.6016182 42.7945832,41.1166129 42.198629,41.1166129 L28.5804417,41.1166129 L24.2523771,45.4446774 L12.9841935,45.4446774 L12.9841935,57.3468548 L22.0883449,57.3468548 L25.3343933,60.5929032 Z M34.6245161,66.0029839 C35.8180095,66.0029839 36.7885484,65.032445 36.7885484,63.8389516 L36.7885484,62.5577558 C35.532184,62.1097335 34.6245161,60.91941 34.6245161,59.5108871 C34.6245161,58.6766569 34.9489097,57.9227325 35.4682562,57.3468548 C34.9499663,56.7709772 34.6245161,56.0170528 34.6245161,55.1828226 C34.6245161,54.3485923 34.9489097,53.594668 35.4682562,53.0187903 C34.9499663,52.4429127 34.6245161,51.6889883 34.6245161,50.8547581 C34.6245161,50.0205278 34.9489097,49.2666035 35.4682562,48.6907258 C34.9499663,48.1148481 34.6245161,47.3609238 34.6245161,46.5266935 C34.6245161,46.145769 34.7021804,45.7843925 34.8236958,45.4446774 L32.4604839,45.4446774 L32.4604839,63.8389516 C32.4604839,65.032445 33.4310227,66.0029839 34.6245161,66.0029839 Z M46.5277501,60.5929032 C47.1237043,60.5929032 47.6097663,60.1078979 47.6097663,59.5108871 C47.6097663,58.9138763 47.1237043,58.428871 46.5277501,58.428871 L37.8705645,58.428871 C37.2746103,58.428871 36.7885484,58.9138763 36.7885484,59.5108871 C36.7885484,60.1078979 37.2746103,60.5929032 37.8705645,60.5929032 L46.5277501,60.5929032 Z M2.16403226,9.73814516 L4.32806452,9.73814516 L4.32806452,11.9021774 L2.16403226,11.9021774 L2.16403226,9.73814516 Z M2.16403226,15.1482258 L4.32806452,15.1482258 L4.32806452,17.3122581 L2.16403226,17.3122581 L2.16403226,15.1482258 Z M2.16403226,20.5583065 L4.32806452,20.5583065 L4.32806452,22.7223387 L2.16403226,22.7223387 L2.16403226,20.5583065 Z M62.7569355,45.4446774 L64.9209677,45.4446774 L64.9209677,47.6087097 L62.7569355,47.6087097 L62.7569355,45.4446774 Z M62.7569355,50.8547581 L64.9209677,50.8547581 L64.9209677,53.0187903 L62.7569355,53.0187903 L62.7569355,50.8547581 Z M62.7569355,56.2648387 L64.9209677,56.2648387 L64.9209677,58.428871 L62.7569355,58.428871 L62.7569355,56.2648387 Z" id="Combined-Shape" fill="#EDECDE" fill-rule="nonzero"></path>
    </g>
</svg>