<?xml version="1.0" encoding="UTF-8"?>
<svg width="68px" height="68px" viewBox="0 0 68 68" version="1.1" xmlns="http://www.w3.org/2000/svg" xmlns:xlink="http://www.w3.org/1999/xlink">
    <!-- Generator: Sketch 52.1 (67048) - http://www.bohemiancoding.com/sketch -->
    <title>skill/webserver</title>
    <desc>Created with Sketch.</desc>
    <g id="skill/webserver" stroke="none" stroke-width="1" fill="none" fill-rule="evenodd">
        <path d="M8.65612903,8.65612903 L10.8201613,8.65612903 L10.8201613,10.8201613 L8.65612903,10.8201613 L8.65612903,8.65612903 Z M12.9841935,8.65612903 L15.1482258,8.65612903 L15.1482258,10.8201613 L12.9841935,10.8201613 L12.9841935,8.65612903 Z M36.7885484,8.65612903 L38.9525806,8.65612903 L38.9525806,12.9841935 L36.7885484,12.9841935 L36.7885484,8.65612903 Z M32.4604839,8.65612903 L34.6245161,8.65612903 L34.6245161,12.9841935 L32.4604839,12.9841935 L32.4604839,8.65612903 Z M28.1324194,8.65612903 L30.2964516,8.65612903 L30.2964516,12.9841935 L28.1324194,12.9841935 L28.1324194,8.65612903 Z M8.65612903,30.2964516 L10.8201613,30.2964516 L10.8201613,32.4604839 L8.65612903,32.4604839 L8.65612903,30.2964516 Z M12.9841935,30.2964516 L15.1482258,30.2964516 L15.1482258,32.4604839 L12.9841935,32.4604839 L12.9841935,30.2964516 Z M28.1324194,30.2964516 L30.2964516,30.2964516 L30.2964516,34.6245161 L28.1324194,34.6245161 L28.1324194,30.2964516 Z M36.7885484,19.4762903 L38.9525806,19.4762903 L38.9525806,21.6403226 L36.7885484,21.6403226 L36.7885484,19.4762903 Z M32.4604839,19.4762903 L34.6245161,19.4762903 L34.6245161,21.6403226 L32.4604839,21.6403226 L32.4604839,19.4762903 Z M8.65612903,19.4762903 L10.8201613,19.4762903 L10.8201613,23.8043548 L8.65612903,23.8043548 L8.65612903,19.4762903 Z M12.9841935,19.4762903 L15.1482258,19.4762903 L15.1482258,23.8043548 L12.9841935,23.8043548 L12.9841935,19.4762903 Z M17.3122581,19.4762903 L19.4762903,19.4762903 L19.4762903,23.8043548 L17.3122581,23.8043548 L17.3122581,19.4762903 Z M8.65612903,47.6087097 L8.65612903,41.1166129 L25.9683871,41.1166129 L25.9683871,47.6087097 L8.65612903,47.6087097 Z M10.8201613,43.2806452 L10.8201613,45.4446774 L23.8043548,45.4446774 L23.8043548,43.2806452 L10.8201613,43.2806452 Z M8.65612903,49.7727419 L10.8201613,49.7727419 L10.8201613,51.9367742 L8.65612903,51.9367742 L8.65612903,49.7727419 Z M12.9841935,49.7727419 L15.1482258,49.7727419 L15.1482258,51.9367742 L12.9841935,51.9367742 L12.9841935,49.7727419 Z M17.3122581,49.7727419 L19.4762903,49.7727419 L19.4762903,51.9367742 L17.3122581,51.9367742 L17.3122581,49.7727419 Z M21.6403226,49.7727419 L23.8043548,49.7727419 L23.8043548,51.9367742 L21.6403226,51.9367742 L21.6403226,49.7727419 Z M47.6087097,28.1324194 C58.3475085,28.1324194 67.085,36.8699109 67.085,47.6087097 C67.085,58.3475085 58.3475085,67.085 47.6087097,67.085 C39.981764,67.085 33.3824165,62.6671198 30.1881444,56.2648387 L3.24604839,56.2648387 C1.45660078,56.2648387 4.26325641e-14,54.8082379 4.26325641e-14,53.0187903 L4.26325641e-14,3.24604839 C4.26325641e-14,1.45660078 1.45660078,4.26325641e-14 3.24604839,4.26325641e-14 L44.3626613,4.26325641e-14 C46.1521089,4.26325641e-14 47.6087097,1.45660078 47.6087097,3.24604839 L47.6087097,28.1324194 Z M64.6050274,44.3626613 C63.1463133,36.7108841 56.6383668,30.8459129 48.6907258,30.3503412 L48.6907258,32.2053013 C48.6907258,33.2852041 49.2914349,34.2557431 50.2561623,34.7381067 C51.9594923,35.5908284 53.0187903,37.3036684 53.0187903,39.2077632 L53.0187903,39.4946453 C53.0187903,40.8286741 52.4994437,42.0850384 51.5558496,43.0275759 L50.6027456,43.98068 C50.0670207,44.5164048 49.7727419,45.2280629 49.7727419,45.9846289 L49.7727419,46.271511 C49.7727419,47.3514138 50.3734511,48.3219528 51.3397634,48.805373 L52.676962,49.4742365 C53.0673965,49.6686613 53.5069656,49.7727419 53.943893,49.7727419 L54.6967606,49.7727419 C55.861196,49.7727419 56.8946059,49.0737637 57.32625,47.9917476 L57.5212031,47.5046291 C58.2851657,45.5963076 60.1057847,44.3626613 62.1609813,44.3626613 L64.6050274,44.3626613 Z M2.16403226,53.0187903 C2.16403226,53.6158011 2.6490376,54.1008065 3.24604839,54.1008065 L4.32806452,54.1008065 L4.32806452,4.32806452 L43.2806452,4.32806452 L43.2806452,28.6343312 C43.9891332,28.4721344 44.7087163,28.3421656 45.4446774,28.2602747 L45.4446774,3.24604839 C45.4446774,2.65009419 44.9596721,2.16403226 44.3626613,2.16403226 L3.24604839,2.16403226 C2.6490376,2.16403226 2.16403226,2.65009419 2.16403226,3.24604839 L2.16403226,53.0187903 Z M31.4260172,36.7885484 C33.7416797,33.3369804 37.1367167,30.6826596 41.1166129,29.268325 L41.1166129,28.1324194 L6.49209677,28.1324194 L6.49209677,36.7885484 L31.4260172,36.7885484 Z M41.1166129,15.1482258 L41.1166129,6.49209677 L6.49209677,6.49209677 L6.49209677,15.1482258 L41.1166129,15.1482258 Z M6.49209677,17.3122581 L6.49209677,25.9683871 L41.1166129,25.9683871 L41.1166129,17.3122581 L6.49209677,17.3122581 Z M6.49209677,54.1008065 L29.268325,54.1008065 C28.5466287,52.066743 28.1324194,49.8873891 28.1324194,47.6087097 C28.1324194,44.4968567 28.885287,41.5646352 30.1881444,38.9525806 L6.49209677,38.9525806 L6.49209677,54.1008065 Z M30.2964516,47.6087097 C30.2964516,57.1540151 38.0634043,64.9209677 47.6087097,64.9209677 C50.1256652,64.9209677 52.511067,64.3693931 54.6708726,63.3999109 L54.0685785,62.4948847 C53.7262218,61.9813497 53.1529857,61.6749194 52.5364267,61.6749194 L51.6134373,61.6749194 C49.4050255,61.6749194 47.6087097,59.8786035 47.6097663,57.6701917 C47.6097663,57.1075222 47.3577538,56.5828922 46.9181847,56.231554 L43.7017227,53.6601808 C42.745977,52.8956899 42.198629,51.7550293 42.198629,50.5314212 L42.198629,49.4494051 C42.198629,48.4344867 41.372852,47.6087097 40.3579336,47.6087097 L39.185045,47.6087097 C37.2830636,47.6087097 35.632038,46.2551329 35.2574534,44.3885493 L35.1158613,43.677948 C34.9436264,42.8209996 34.1854754,42.198629 33.3100356,42.198629 L31.1740047,42.198629 C30.6113352,43.9030157 30.2964516,45.7183515 30.2964516,47.6087097 Z M56.5913455,62.3791808 C61.5766504,59.3365389 64.9209677,53.8625304 64.9209677,47.6087097 C64.9209677,47.2431066 64.8887398,46.8859567 64.8660216,46.5266935 L62.1609813,46.5266935 C60.996546,46.5266935 59.963136,47.2256718 59.5304352,48.3076879 L59.3354821,48.7948064 C58.5715196,50.7031278 56.7509006,51.9367742 54.6957041,51.9367742 L53.9428363,51.9367742 C53.1714771,51.9367742 52.398533,51.7539727 51.7085364,51.410031 L50.3713377,50.7411675 C48.6680077,49.8884458 47.6087097,48.1756058 47.6087097,46.271511 L47.6087097,45.9846289 C47.6087097,44.6506001 48.1280563,43.3942358 49.0716504,42.4516983 L50.0247544,41.4985942 C50.5604793,40.9628694 50.8547581,40.2512113 50.8547581,39.4946453 L50.8547581,39.2077632 C50.8547581,38.1278604 50.2540489,37.1573214 49.2893216,36.6749578 C47.5859915,35.8222362 46.5266935,34.1104528 46.5266935,32.206358 L46.5266935,30.3513977 C40.1635089,30.747644 34.7317668,34.5875331 32.0652944,40.0345968 L33.3100356,40.0345968 C35.2120171,40.0345968 36.8630426,41.3881735 37.2376273,43.2547571 L37.3792194,43.9653585 C37.5514543,44.8223069 38.3096053,45.4446774 39.185045,45.4446774 L40.3579336,45.4446774 C42.5663455,45.4446774 44.3626613,47.2409933 44.3626613,49.4494051 L44.3626613,50.5314212 C44.3626613,51.0951474 44.6136172,51.6187207 45.0531863,51.9700589 L48.2696483,54.5414321 C49.2253939,55.305923 49.7727419,56.4465836 49.7727419,57.6701917 C49.7727419,58.6851101 50.5985189,59.5108871 51.6134373,59.5108871 L52.5364267,59.5108871 C53.8789086,59.5108871 55.1241781,60.1776373 55.8675359,61.2939948 L56.5913455,62.3791808 Z" id="Combined-Shape" fill="#EDECDE"></path>
    </g>
</svg>